<?xml version="1.0" encoding="utf-8"?>
<!-- Generator: Adobe Illustrator 27.1.0, SVG Export Plug-In . SVG Version: 6.00 Build 0)  -->
<svg version="1.1" id="Capa_2_00000018926894617719131810000003935182977014777524_"
	 xmlns="http://www.w3.org/2000/svg" xmlns:xlink="http://www.w3.org/1999/xlink" x="0px" y="0px" viewBox="0 0 269 304.8"
	 style="enable-background:new 0 0 269 304.8;" xml:space="preserve">
<style type="text/css">
	.st0{fill:#111111;}
	.st1{fill:url(#SVGID_1_);}
</style>
<path class="st0" d="M266.3,229c-1.9,2.8-4,4.9-6.5,6.3c-22.6,13.2-60.1,34.9-112.5,65c-9,5.2-14.9,6.2-23.8,1.1
	c-38.1-22-76.1-43.9-114.2-65.9c-8-4.6-9.4-11.3-9.4-20.8C0,172.8,0,130.9,0,89C0,79.6,1.9,73.7,10,69c33.8-19.5,67.5-39,101.3-58.5
	c4.3-2.5,8.6-5,12.8-7.6c9.6-5.8,16.6-2.2,25.5,2.9c36,20.7,71.9,41.4,107.8,62.2c8.1,4.7,11.6,9.9,11.6,19.4c0,43.5,0,87,0,130.5
	C269,221.9,268.1,225.5,266.3,229z"/>
<linearGradient id="SVGID_1_" gradientUnits="userSpaceOnUse" x1="61.7226" y1="121.3037" x2="200.2147" y2="223.3371">
	<stop  offset="0" style="stop-color:#93DFC0"/>
	<stop  offset="6.714076e-02" style="stop-color:#88DCBA"/>
	<stop  offset="0.3577" style="stop-color:#5ECFA1"/>
	<stop  offset="0.6202" style="stop-color:#3FC690"/>
	<stop  offset="0.8431" style="stop-color:#2DC085"/>
	<stop  offset="1" style="stop-color:#26BE81"/>
</linearGradient>
<path class="st1" d="M55,183.2v12.5c0,0.6,0.5,1,1,1h8c0.6,0,1-0.4,1-1v-2.2c0-0.6-0.4-1-1-1h-4c-0.5,0-1-0.4-1-1v-3.8
	c0-0.6,0.5-1,1-1h10.8c0.6,0,1,0.4,1,1v10.5c0,0.3-0.1,0.5-0.3,0.7l-3.3,3.3c-0.2,0.2-0.4,0.3-0.7,0.3H52.6c-0.3,0-0.5-0.1-0.7-0.3
	l-3.3-3.3c-0.2-0.2-0.3-0.4-0.3-0.7v-17.3c0-0.3,0.1-0.5,0.3-0.7l3.3-3.4c0.2-0.2,0.5-0.3,0.7-0.3h14.9c0.2,0,0.5,0.1,0.7,0.3
	c2.2,2,4.2,3.1,3.6,6.5c-0.1,0.4-0.3,0.7-0.7,0.8c-2.4,0.8-4.4,0.3-5.8-1.5c-0.2-0.2-0.5-0.4-0.8-0.4H56
	C55.4,182.2,55,182.7,55,183.2z M89.7,185.6l5.1-8.6c0.2-0.3,0.5-0.5,0.9-0.5h4.4c0.5,0,0.9,0.4,1,0.8c0.5,3.2-6.6,13.1-8.6,16.3
	c-0.1,0.2-0.2,0.3-0.2,0.5v7.4c0,0.6-0.4,1-1,1h-4.8c-0.6,0-1-0.4-1-1v-7.1c0-0.2-0.1-0.4-0.1-0.5c-1.8-3.1-9.4-13.6-8.9-16.6
	c0.1-0.5,0.5-0.8,1-0.8h4.4c0.3,0,0.7,0.2,0.9,0.5l5.1,8.6c0.3,0.5,0.9,0.6,1.4,0.4C89.4,185.9,89.6,185.8,89.7,185.6z M123.7,190.7
	l-2.9,5.5c-0.2,0.3-0.5,0.5-0.9,0.5h-2.2c-0.4,0-0.7-0.2-0.9-0.6l-2.6-5.1c-1-2-1.5-1.9-1.5,0.4v10.1c0,0.6-0.4,1-1,1h-5
	c-0.6,0-1-0.4-1-1v-24c0-0.6,0.4-1,1-1h5.3c0.4,0,0.7,0.2,0.9,0.5l5.1,9.6c0.6,1.1,1.2,1.1,1.8,0l5.1-9.6c0.2-0.3,0.5-0.5,0.9-0.5
	h5.2c0.6,0,1,0.4,1,1v24c0,0.6-0.4,1-1,1h-4.8c-0.6,0-1-0.4-1-1V191C125.2,188.9,124.7,188.7,123.7,190.7L123.7,190.7z M191.1,189.5
	c0.1-0.1,0.1-0.2,0.1-0.3v-8.7c0-0.1,0-0.2-0.1-0.3l-3.7-3.7c-0.1-0.1-0.2-0.1-0.3-0.1h-19.1c-0.2,0-0.4,0.2-0.4,0.4v25.3
	c0,0.2,0.2,0.4,0.4,0.4h6c0.2,0,0.4-0.2,0.4-0.4v-8c0-0.2,0.2-0.4,0.4-0.4h4.4c0.1,0,0.2,0.1,0.3,0.2l5.2,8.4
	c0.1,0.1,0.2,0.2,0.3,0.2h5.8c0.2,0,0.4-0.2,0.4-0.4v-2.4c0-0.1,0-0.1-0.1-0.2l-3.8-6c-0.1-0.1-0.1-0.3,0-0.4L191.1,189.5z
	 M184.5,187.5c0,0.2-0.2,0.4-0.4,0.4l-9.1,0c-0.2,0-0.4-0.2-0.4-0.4v-4.2l0-0.7c0-0.2,0.2-0.4,0.4-0.4l9.1,0c0.1,0,0.1,0,0.2,0
	c0.2,0.1,0.3,0.2,0.3,0.4h0V187.5z M214.1,176.5h-10.7c-3.4,0-6.2,2.8-6.2,6.2v13.7c0,3.4,2.8,6.2,6.2,6.2h10.7
	c3.4,0,6.2-2.8,6.2-6.2v-13.7C220.3,179.2,217.5,176.5,214.1,176.5z M213.3,196.7c-0.1,0-0.1,0-0.2,0l-8.7,0c-0.2,0-0.4-0.2-0.4-0.4
	l0-9.4l0-4.3c0-0.2,0.2-0.4,0.4-0.4l8.7,0c0.2,0,0.3,0.1,0.4,0.3c0,0.1,0,0.1,0,0.2l0,4.3l0,9.3
	C213.5,196.5,213.4,196.6,213.3,196.7z M160.8,191.5c-0.4-0.4-0.7-0.9-1.1-1.3c-0.4-0.4-0.4-1,0-1.4c2.2-2.2,2.8-5,1.8-8.4
	c-0.3-0.9-1.5-2.2-3.5-3.8c-0.2-0.1-0.4-0.2-0.6-0.2H139c-0.5,0-1,0.5-1,1v23.9c0,0.5,0.4,1,1,1c5.3,0.1,10.6,0.1,16,0.1
	c1.8,0,3.3-0.4,4.3-1.3C161.8,199.2,163.1,194.4,160.8,191.5z M154.7,196.2c0,0.3-0.2,0.5-0.5,0.5l-9,0c-0.1,0-0.3-0.1-0.4-0.2
	c-0.1-0.1-0.2-0.2-0.2-0.4l0-3.2c0-0.3,0.2-0.5,0.5-0.5l9,0c0.1,0,0.3,0.1,0.4,0.2c0.1,0.1,0.2,0.2,0.2,0.4h0l0,2V196.2z
	 M154.8,186.1c0,0.3-0.3,0.6-0.6,0.6h-8.8h0c0,0,0,0,0,0c-0.3,0-0.6-0.3-0.6-0.6v-3.3c0-0.3,0.3-0.6,0.6-0.6c0,0,0,0,0,0h0h8.8
	c0.3,0,0.6,0.3,0.6,0.6V186.1z M119.1,117.5c-0.2,0-0.4-0.2-0.4-0.4l0,0v-13.5c0-0.2-0.2-0.4-0.4-0.4h-6.5c-0.2,0-0.4,0.2-0.4,0.4
	l0,0v33.2c0,0.2,0.2,0.4,0.4,0.4h6.5c0.2,0,0.4-0.2,0.4-0.4l0,0v-13c0-0.2,0.2-0.4,0.4-0.4h3c0.2,0,0.4-0.2,0.4-0.4l0,0v-5.2
	c0-0.2-0.2-0.4-0.4-0.4L119.1,117.5L119.1,117.5z M149.8,117.2c0,0.2-0.1,0.3-0.3,0.3h-4.3c-0.2,0-0.3,0.2-0.3,0.3
	c0,0.1,0,0.1,0.1,0.2l3.3,5.3c0.1,0.1,0.2,0.2,0.3,0.2h1c0.2,0,0.3,0.2,0.3,0.3v13.1c0,0.2,0.1,0.3,0.3,0.3h6.6
	c0.2,0,0.3-0.1,0.3-0.3v-33.3c0-0.2-0.1-0.3-0.3-0.3h-6.6c-0.2,0-0.3,0.2-0.3,0.3L149.8,117.2L149.8,117.2z M105,123.5
	c0.3,0,0.5,0.2,0.5,0.5v8.5c0,0.3,0.2,0.5,0.5,0.5h3.8c0.3,0,0.5-0.2,0.5-0.5V108c0-0.3-0.2-0.5-0.5-0.5H106c-0.3,0-0.5,0.2-0.5,0.5
	v9c0,0.3-0.2,0.5-0.5,0.5h-4.8c-0.3,0-0.5,0.2-0.5,0.5v5c0,0.3,0.2,0.5,0.5,0.5C100.2,123.5,105,123.5,105,123.5z M163,124
	c0-0.3,0.2-0.5,0.5-0.5h4.7c0.3,0,0.5-0.2,0.5-0.5l0,0V118c0-0.3-0.2-0.5-0.5-0.5h-4.7c-0.3,0-0.5-0.2-0.5-0.5l0,0V108
	c0-0.3-0.2-0.5-0.5-0.5h-3.7c-0.3,0-0.5,0.2-0.5,0.5l0,0v24.4c0,0.3,0.2,0.5,0.5,0.5h3.7c0.3,0,0.5-0.2,0.5-0.5l0,0V124z
	 M133.2,114.5c0-1.1-0.9-2-2-2H131c-1.1,0-2,0.9-2,2l0,0l0,7.4c0,1.1,0.9,2,2,2h0.2c1.1,0,2-0.9,2-2l0,0L133.2,114.5z M138.4,115.5
	c0-1.1-0.9-2-2-2h-0.2c-1.1,0-2,0.9-2,2l0,0l0,6.4c0,1.1,0.9,2,2,2h0.2c1.1,0,2-0.9,2-2l0,0L138.4,115.5z M128,117.4
	c0-1.1-0.9-2-2-2h-0.2c-1.1,0-2,0.9-2,2l0,0v4.5c0,1.1,0.9,2,2,2h0.2c1.1,0,2-0.9,2-2V117.4z M126.5,136.4V158c0,0.6,0.4,1,1,1h13.3
	c0.6,0,1-0.4,1-1c0,0,0-0.1,0-0.1l-2.9-21.1c0-0.3,0.1-0.7,0.3-0.9c4.6-4,6-5.5,7.5-11.6c0.1-0.3,0-0.6-0.1-0.8l-3.8-5.8
	c-0.1-0.2-0.3-0.3-0.6-0.4c-2-0.6-3,0.1-3,2.1c0,0.2,0,0.4,0.1,0.6l1.5,2.4c0.3,0.5,0.1,1.1-0.3,1.4c-0.1,0.1-0.2,0.1-0.3,0.1
	c-3.3,0.6-5.8,1.8-7.6,3.6c-1.9,1.9-2.7,4.4-2.5,7.6c0,0.1,0,0.3-0.1,0.4c-0.6,0.8-1-0.3-1-0.8c-0.1-3.1,0.8-5.9,2.7-8.3
	c0.7-0.9,0.5-1.3-0.6-1.3h-6.3c-0.5,0-1,0.4-1,0.9c-0.2,2.8-0.1,5.1,0.2,6.8c0.2,1.1,0.9,2.1,2.1,2.8
	C126.3,135.7,126.5,136,126.5,136.4L126.5,136.4z"/>
</svg>
