<?xml version="1.0" encoding="utf-8"?>
<!-- Generator: Adobe Illustrator 27.1.0, SVG Export Plug-In . SVG Version: 6.00 Build 0)  -->
<svg version="1.1" id="Capa_2_00000018926894617719131810000003935182977014777524_"
	 xmlns="http://www.w3.org/2000/svg" xmlns:xlink="http://www.w3.org/1999/xlink" x="0px" y="0px" viewBox="0 0 269 304.8"
	 style="enable-background:new 0 0 269 304.8;" xml:space="preserve">
<style type="text/css">
	.st0{fill:#111111;}
	.st1{fill:url(#SVGID_1_);}
	.st2{fill:url(#SVGID_00000046329166958561955400000004175070378769672099_);}
	.st3{fill:url(#SVGID_00000135660161888309664940000016615400476250848925_);}
	.st4{fill:url(#SVGID_00000005976485999923035390000002151712019755552394_);}
	.st5{fill:url(#SVGID_00000007400494221896455690000013792197035692576694_);}
	.st6{fill:url(#SVGID_00000043427110427264371130000017767227243078649510_);}
	.st7{fill:url(#SVGID_00000169536860456803869200000003245494994596917665_);}
	.st8{fill:url(#SVGID_00000108305648782905537390000006519097693622903470_);}
</style>
<path class="st0" d="M266.3,229c-1.9,2.8-4,4.9-6.5,6.3c-22.6,13.2-60.1,34.9-112.5,65c-9,5.2-14.9,6.2-23.8,1.1
	c-38.1-22-76.1-43.9-114.2-65.9c-8-4.6-9.4-11.3-9.4-20.8C0,172.8,0,130.9,0,89c0-9.4,1.9-15.3,10-20c33.8-19.5,67.5-39,101.3-58.5
	c4.3-2.5,8.6-5,12.8-7.6c9.6-5.8,16.6-2.2,25.5,2.9c36,20.7,71.9,41.4,107.8,62.2c8.1,4.7,11.6,9.9,11.6,19.4c0,43.5,0,87,0,130.5
	C269,221.9,268.1,225.5,266.3,229z"/>
<g>
	<linearGradient id="SVGID_1_" gradientUnits="userSpaceOnUse" x1="61.0932" y1="150.585" x2="114.3803" y2="111.326">
		<stop  offset="0" style="stop-color:#93DFC0"/>
		<stop  offset="6.714076e-02" style="stop-color:#88DCBA"/>
		<stop  offset="0.3577" style="stop-color:#5ECFA1"/>
		<stop  offset="0.6202" style="stop-color:#3FC690"/>
		<stop  offset="0.8431" style="stop-color:#2DC085"/>
		<stop  offset="1" style="stop-color:#26BE81"/>
	</linearGradient>
	<path class="st1" d="M100.8,122c-0.4,0-0.9-0.4-0.9-0.9l0,0V91c0-0.4-0.4-0.9-0.9-0.9H84.5c-0.4,0-0.9,0.4-0.9,0.9l0,0v74.1
		c0,0.4,0.4,0.9,0.9,0.9H99c0.4,0,0.9-0.4,0.9-0.9l0,0v-29c0-0.4,0.4-0.9,0.9-0.9h6.7c0.4,0,0.9-0.4,0.9-0.9l0,0v-11.6
		c0-0.4-0.4-0.9-0.9-0.9L100.8,122L100.8,122z"/>
	
		<linearGradient id="SVGID_00000034808957179779148290000008537060824186081690_" gradientUnits="userSpaceOnUse" x1="146.901" y1="150.7106" x2="200.1759" y2="111.4606">
		<stop  offset="0" style="stop-color:#93DFC0"/>
		<stop  offset="6.714076e-02" style="stop-color:#88DCBA"/>
		<stop  offset="0.3577" style="stop-color:#5ECFA1"/>
		<stop  offset="0.6202" style="stop-color:#3FC690"/>
		<stop  offset="0.8431" style="stop-color:#2DC085"/>
		<stop  offset="1" style="stop-color:#26BE81"/>
	</linearGradient>
	<path style="fill:url(#SVGID_00000034808957179779148290000008537060824186081690_);" d="M169.3,121.3c0,0.4-0.2,0.7-0.7,0.7H159
		c-0.4,0-0.7,0.4-0.7,0.7c0,0.2,0,0.2,0.2,0.4l7.4,11.8c0.2,0.2,0.4,0.4,0.7,0.4h2.2c0.4,0,0.7,0.4,0.7,0.7v29.2
		c0,0.4,0.2,0.7,0.7,0.7h14.7c0.4,0,0.7-0.2,0.7-0.7V91c0-0.4-0.2-0.7-0.7-0.7h-14.7c-0.4,0-0.7,0.4-0.7,0.7L169.3,121.3
		L169.3,121.3z"/>
	
		<linearGradient id="SVGID_00000150818730143335822200000006525478322589998776_" gradientUnits="userSpaceOnUse" x1="53.5896" y1="144.4718" x2="92.1785" y2="116.0417">
		<stop  offset="0" style="stop-color:#93DFC0"/>
		<stop  offset="6.714076e-02" style="stop-color:#88DCBA"/>
		<stop  offset="0.3577" style="stop-color:#5ECFA1"/>
		<stop  offset="0.6202" style="stop-color:#3FC690"/>
		<stop  offset="0.8431" style="stop-color:#2DC085"/>
		<stop  offset="1" style="stop-color:#26BE81"/>
	</linearGradient>
	<path style="fill:url(#SVGID_00000150818730143335822200000006525478322589998776_);" d="M69.3,135.4c0.7,0,1.1,0.4,1.1,1.1v19
		c0,0.7,0.4,1.1,1.1,1.1H80c0.7,0,1.1-0.4,1.1-1.1v-54.7c0-0.7-0.4-1.1-1.1-1.1h-8.5c-0.7,0-1.1,0.4-1.1,1.1v20.1
		c0,0.7-0.4,1.1-1.1,1.1H58.6c-0.7,0-1.1,0.4-1.1,1.1v11.2c0,0.7,0.4,1.1,1.1,1.1H69.3z"/>
	
		<linearGradient id="SVGID_00000137122521382333142440000012231196002918720438_" gradientUnits="userSpaceOnUse" x1="171.4479" y1="144.2375" x2="209.7469" y2="116.0209">
		<stop  offset="0" style="stop-color:#93DFC0"/>
		<stop  offset="6.714076e-02" style="stop-color:#88DCBA"/>
		<stop  offset="0.3577" style="stop-color:#5ECFA1"/>
		<stop  offset="0.6202" style="stop-color:#3FC690"/>
		<stop  offset="0.8431" style="stop-color:#2DC085"/>
		<stop  offset="1" style="stop-color:#26BE81"/>
	</linearGradient>
	<path style="fill:url(#SVGID_00000137122521382333142440000012231196002918720438_);" d="M198.7,136.5c0-0.7,0.4-1.1,1.1-1.1h10.5
		c0.7,0,1.1-0.4,1.1-1.1l0,0v-11.2c0-0.7-0.4-1.1-1.1-1.1h-10.5c-0.7,0-1.1-0.4-1.1-1.1l0,0v-20.1c0-0.7-0.4-1.1-1.1-1.1h-8.3
		c-0.7,0-1.1,0.4-1.1,1.1l0,0v54.4c0,0.7,0.4,1.1,1.1,1.1h8.3c0.7,0,1.1-0.4,1.1-1.1l0,0V136.5z"/>
	
		<linearGradient id="SVGID_00000092424190443441908170000007984207856680016276_" gradientUnits="userSpaceOnUse" x1="117.3499" y1="131.0584" x2="135.0659" y2="118.0062">
		<stop  offset="0" style="stop-color:#93DFC0"/>
		<stop  offset="6.714076e-02" style="stop-color:#88DCBA"/>
		<stop  offset="0.3577" style="stop-color:#5ECFA1"/>
		<stop  offset="0.6202" style="stop-color:#3FC690"/>
		<stop  offset="0.8431" style="stop-color:#2DC085"/>
		<stop  offset="1" style="stop-color:#26BE81"/>
	</linearGradient>
	<path style="fill:url(#SVGID_00000092424190443441908170000007984207856680016276_);" d="M132.2,115.3c0-2.5-2-4.5-4.5-4.5h-0.4
		c-2.5,0-4.5,2-4.5,4.5l0,0v16.5c0,2.5,2,4.5,4.5,4.5h0.4c2.5,0,4.5-2,4.5-4.5l0,0V115.3z"/>
	
		<linearGradient id="SVGID_00000159470610409571558840000002270124466156546951_" gradientUnits="userSpaceOnUse" x1="129.6585" y1="131.6532" x2="146.145" y2="119.5069">
		<stop  offset="0" style="stop-color:#93DFC0"/>
		<stop  offset="6.714076e-02" style="stop-color:#88DCBA"/>
		<stop  offset="0.3577" style="stop-color:#5ECFA1"/>
		<stop  offset="0.6202" style="stop-color:#3FC690"/>
		<stop  offset="0.8431" style="stop-color:#2DC085"/>
		<stop  offset="1" style="stop-color:#26BE81"/>
	</linearGradient>
	<path style="fill:url(#SVGID_00000159470610409571558840000002270124466156546951_);" d="M143.8,117.5c0-2.5-2-4.5-4.5-4.5h-0.4
		c-2.5,0-4.5,2-4.5,4.5l0,0v14.3c0,2.5,2,4.5,4.5,4.5h0.4c2.5,0,4.5-2,4.5-4.5l0,0V117.5z"/>
	
		<linearGradient id="SVGID_00000098918711999392206620000007339187159211539889_" gradientUnits="userSpaceOnUse" x1="107.7978" y1="132.7834" x2="121.948" y2="122.3583">
		<stop  offset="0" style="stop-color:#93DFC0"/>
		<stop  offset="6.714076e-02" style="stop-color:#88DCBA"/>
		<stop  offset="0.3577" style="stop-color:#5ECFA1"/>
		<stop  offset="0.6202" style="stop-color:#3FC690"/>
		<stop  offset="0.8431" style="stop-color:#2DC085"/>
		<stop  offset="1" style="stop-color:#26BE81"/>
	</linearGradient>
	<path style="fill:url(#SVGID_00000098918711999392206620000007339187159211539889_);" d="M120.6,121.8c0-2.5-2-4.5-4.5-4.5h-0.4
		c-2.5,0-4.5,2-4.5,4.5l0,0v10c0,2.5,2,4.5,4.5,4.5h0.4c2.5,0,4.5-2,4.5-4.5V121.8z"/>
	
		<linearGradient id="SVGID_00000079469078786152234460000003417812634196694152_" gradientUnits="userSpaceOnUse" x1="96.6888" y1="166.6499" x2="166.8434" y2="114.9638" gradientTransform="matrix(1 0 0 -1 0 306)">
		<stop  offset="0" style="stop-color:#93DFC0"/>
		<stop  offset="6.714076e-02" style="stop-color:#88DCBA"/>
		<stop  offset="0.3577" style="stop-color:#5ECFA1"/>
		<stop  offset="0.6202" style="stop-color:#3FC690"/>
		<stop  offset="0.8431" style="stop-color:#2DC085"/>
		<stop  offset="1" style="stop-color:#26BE81"/>
	</linearGradient>
	<path style="fill:url(#SVGID_00000079469078786152234460000003417812634196694152_);" d="M117.3,164.2v48.2c0,1.3,0.9,2.2,2.2,2.2
		h29.7c1.3,0,2.2-0.9,2.2-2.2v-0.2l-6.5-47.1c0-0.7,0.2-1.6,0.7-2c10.3-8.9,13.4-12.3,16.7-25.9c0.2-0.7,0-1.3-0.2-1.8l-8.5-12.9
		c-0.2-0.4-0.7-0.7-1.3-0.9c-4.5-1.3-6.7,0.2-6.7,4.7c0,0.4,0,0.9,0.2,1.3l3.3,5.4c0.7,1.1,0.2,2.5-0.7,3.1
		c-0.2,0.2-0.4,0.2-0.7,0.2c-7.4,1.3-12.9,4-17,8c-4.2,4.2-6,9.8-5.6,17c0,0.2,0,0.7-0.2,0.9c-1.3,1.8-2.2-0.7-2.2-1.8
		c-0.2-6.9,1.8-13.2,6-18.5c1.6-2,1.1-2.9-1.3-2.9h-14.1c-1.1,0-2.2,0.9-2.2,2c-0.4,6.2-0.2,11.4,0.4,15.2c0.4,2.5,2,4.7,4.7,6.2
		C116.8,162.6,117.3,163.3,117.3,164.2L117.3,164.2z"/>
</g>
</svg>
